<?xml version="1.0" encoding="iso-8859-1"?>
<!-- Generator: Adobe Illustrator 21.0.0, SVG Export Plug-In . SVG Version: 6.00 Build 0)  -->
<svg xmlns="http://www.w3.org/2000/svg" xmlns:xlink="http://www.w3.org/1999/xlink" version="1.1" id="Capa_1" x="0px" y="0px" viewBox="0 0 513.356 513.356" style="enable-background:new 0 0 513.356 513.356;" xml:space="preserve" width="512" height="512">
<g>
	<g>
		<path d="M209.374,413.875c-75.388-20.011-128.04-88.527-128.04-166.619c0-29.826,7.734-59.101,22.352-84.887    c8.238-2.401,30.184-10.341,41.228-29.195c13.467-22.991,4.849-52.203,4.475-53.435c-1.137-3.749-4.964-5.992-8.79-5.15    c-1.257,0.277-30.952,7.045-44.42,30.036c-10.944,18.682-7.303,41.473-5.354,50.019c-7.55,13.255-13.426,27.356-17.521,41.977    c-3.286-6.239-7.754-12.397-13.847-17.374c0-0.001,0-0.001,0-0.001C38.822,162.391,8.63,166.393,7.355,166.574    c-3.878,0.543-6.686,3.98-6.445,7.889c0.08,1.285,2.18,31.669,22.816,48.526c13.79,11.265,31.847,13.213,42.69,13.213    c0.089,0,0.174-0.001,0.262-0.001c-0.216,3.675-0.344,7.36-0.344,11.055c0,16.994,2.3,33.57,6.627,49.39    c-5.287-3.242-11.31-5.894-17.985-7.195c-26.154-5.1-50.864,12.704-51.904,13.464c-3.161,2.313-4.01,6.668-1.949,9.999    c0.252,0.407,6.28,10.057,16.666,18.732c3.18,2.656,7.91,2.232,10.564-0.948c2.656-3.179,2.232-7.909-0.948-10.564    c-3.684-3.078-6.72-6.334-8.976-9.032c7.606-4.049,20.791-9.441,33.677-6.928c12.886,2.512,23.081,12.461,28.606,19.066    c-6.9,3.672-18.396,8.45-30.094,7.426c-4.065-0.347-7.769,2.751-8.125,6.819c-0.356,4.071,2.748,7.769,6.819,8.125    c1.529,0.133,3.044,0.196,4.548,0.196c14.22-0.001,27.125-5.601,34.831-9.818c8.873,16.489,20.169,31.566,33.477,44.71    c-7.049-0.144-14.599,0.784-21.903,3.707c-24.739,9.897-35.85,38.254-36.31,39.457c-1.402,3.657,0.246,7.777,3.784,9.458    c0.842,0.4,15.539,7.254,32.977,7.254c6.65,0,13.7-0.997,20.529-3.729c16.656-6.663,27.126-21.686,32.336-31.164    c15.766,9.981,33.206,17.719,51.945,22.693c4.057,1.075,8.315-1.506,9.24-5.598C215.644,418.894,213.219,414.895,209.374,413.875z     M33.214,211.373c-10.176-8.313-14.455-21.917-16.198-30.348c8.587,0.01,22.715,1.479,32.951,9.84v0    c10.167,8.306,14.447,21.892,16.193,30.325C57.544,221.16,43.378,219.676,33.214,211.373z M109.122,112.208    c6.635-11.328,19.397-17.655,27.459-20.682c1.303,8.517,2.024,22.741-4.61,34.066c-6.635,11.328-19.397,17.655-27.459,20.682    C103.209,137.757,102.487,123.533,109.122,112.208z M115.673,422.917c-12.2,4.881-26.176,2.039-34.396-0.516    c4.166-7.51,12.289-19.161,24.56-24.07c12.201-4.881,26.176-2.04,34.396,0.516C136.068,406.357,127.945,418.008,115.673,422.917z"/>
		<path d="M510.285,302.915c-1.04-0.761-25.753-18.563-51.904-13.464c-6.675,1.301-12.698,3.953-17.985,7.195    c4.328-15.82,6.627-32.396,6.627-49.39c0-3.696-0.128-7.383-0.345-11.059c0.087,0,0.171,0.002,0.26,0.002    c6.638,0,15.981-0.726,25.355-3.858c3.929-1.313,6.049-5.562,4.736-9.491c-1.313-3.928-5.561-6.047-9.491-4.736    c-7.404,2.475-14.96,3.062-20.342,3.079c1.747-8.437,6.027-22.023,16.193-30.328c10.168-8.306,24.337-9.789,32.948-9.817    c-1.226,5.921-3.702,14.381-8.596,21.782c-2.285,3.455-1.336,8.108,2.119,10.393c3.454,2.285,8.107,1.336,10.393-2.119    c10.831-16.378,12.144-35.821,12.194-36.641c0.241-3.909-2.566-7.346-6.445-7.889c-1.276-0.18-31.468-4.183-52.102,12.674    c-6.094,4.978-10.561,11.135-13.847,17.374c-4.095-14.621-9.971-28.722-17.521-41.977c1.949-8.546,5.59-31.337-5.354-50.019    c-13.468-22.991-43.163-29.759-44.42-30.036c-3.826-0.842-7.654,1.401-8.791,5.15c-0.374,1.232-8.992,30.444,4.475,53.435    c11.044,18.854,32.991,26.794,41.228,29.195c14.618,25.786,22.352,55.061,22.352,84.887c0,78.092-52.652,146.608-128.041,166.619    c-3.845,1.021-6.27,5.019-5.392,8.9c0.926,4.092,5.184,6.673,9.24,5.598c18.739-4.974,36.18-12.712,51.945-22.693    c5.21,9.478,15.68,24.501,32.336,31.164c6.831,2.733,13.878,3.729,20.529,3.729c17.435,0,32.135-6.854,32.977-7.254    c3.538-1.681,5.185-5.801,3.784-9.458c-0.461-1.202-11.572-29.56-36.311-39.457c-7.304-2.922-14.853-3.851-21.902-3.707    c13.307-13.144,24.603-28.219,33.476-44.708c7.703,4.217,20.604,9.815,34.834,9.815c3.178,0,6.424-0.28,9.69-0.917    c26.153-5.099,42.369-30.879,43.046-31.974C514.294,309.583,513.445,305.227,510.285,302.915z M407.52,398.331    c12.2,4.881,20.359,16.577,24.549,24.098c-8.197,2.564-22.116,5.397-34.386,0.488c-12.2-4.881-20.359-16.577-24.549-24.098    C381.33,396.254,395.249,393.421,407.52,398.331z M381.386,125.592c-6.636-11.328-5.913-25.554-4.611-34.066    c8.066,3.029,20.826,9.356,27.46,20.682c6.636,11.328,5.913,25.554,4.611,34.066C400.779,143.245,388.02,136.918,381.386,125.592z     M466.318,330.165c-12.896,2.514-26.095-2.889-33.694-6.936c5.496-6.599,15.654-16.526,28.627-19.055    c12.898-2.512,26.096,2.889,33.694,6.937C489.449,317.709,479.291,327.636,466.318,330.165z"/>
		<path d="M328.499,319.146c0-17.61-14.327-31.938-31.938-31.938H296.4V185.915c0-4.142-3.358-7.5-7.5-7.5    c-4.142,0-7.5,3.358-7.5,7.5v108.793c0,4.142,3.358,7.5,7.5,7.5h7.661c9.339,0,16.938,7.598,16.938,16.938    c0,9.339-7.598,16.938-16.938,16.938h-69.038c-9.339,0-16.938-7.598-16.938-16.938c0-9.339,7.598-16.938,16.938-16.938h12.501    c4.142,0,7.5-3.358,7.5-7.5V163.654c0-3.032-1.826-5.766-4.627-6.928c-2.799-1.162-6.026-0.523-8.171,1.62l-5.966,5.955    c-6.611,6.597-17.356,6.587-23.954-0.021c-6.598-6.61-6.587-17.355,0.023-23.954l47.667-47.579    c4.864-4.853,12.109-6.29,18.455-3.658c6.347,2.633,10.449,8.774,10.449,15.646v51.18c0,4.142,3.358,7.5,7.5,7.5    c4.142,0,7.5-3.358,7.5-7.5v-51.18c0-12.957-7.733-24.537-19.703-29.501c-11.97-4.961-25.628-2.254-34.797,6.897l-47.667,47.579    c-12.464,12.441-12.483,32.702-0.042,45.167c10.361,10.379,26.147,12.127,38.335,5.235v107.096h-5.001    c-17.61,0-31.938,14.327-31.938,31.938c0,17.61,14.327,31.938,31.938,31.938h69.038    C314.172,351.083,328.499,336.756,328.499,319.146z"/>
	</g>
	<path style="fill:none;stroke:#000000;stroke-width:15;stroke-linecap:round;stroke-linejoin:round;stroke-miterlimit:10;" d="   M49.95,338.306"/>
	<path style="fill:none;stroke:#000000;stroke-width:15;stroke-linecap:round;stroke-linejoin:round;stroke-miterlimit:10;" d="   M22.6,325.885"/>
</g>















</svg>
